HIERARCHY
ROOT Hips
{
	OFFSET 56.877701 -32.693596 43.373703
	CHANNELS 6 Xposition Yposition Zposition Zrotation Xrotation Yrotation
	JOINT Chest
	{
		OFFSET -0.779999 1.005800 5.403099
		CHANNELS 6 Xposition Yposition Zposition Zrotation Xrotation Yrotation
		JOINT Chest2
		{
			OFFSET 0.000000 0.000000 4.236801
			CHANNELS 6 Xposition Yposition Zposition Zrotation Xrotation Yrotation
			JOINT Neck
			{
				OFFSET 0.000000 0.000000 9.874401
				CHANNELS 6 Xposition Yposition Zposition Zrotation Xrotation Yrotation
				JOINT Head
				{
					OFFSET 0.000000 0.000002 2.173893
					CHANNELS 6 Xposition Yposition Zposition Zrotation Xrotation Yrotation
					End Site
					{
						OFFSET 0.000000 0.000000 6.508102
					}
				}
			}
			JOINT LeftCollar
			{
				OFFSET 2.681599 -0.377600 5.432499
				CHANNELS 6 Xposition Yposition Zposition Zrotation Xrotation Yrotation
				JOINT LeftShoulder
				{
					OFFSET 5.161499 0.000000 0.000000
					CHANNELS 6 Xposition Yposition Zposition Zrotation Xrotation Yrotation
					JOINT LeftElbow
					{
						OFFSET 0.000000 0.000000 -10.869099
						CHANNELS 6 Xposition Yposition Zposition Zrotation Xrotation Yrotation
						JOINT LeftWrist
						{
							OFFSET 0.000000 0.000000 -13.344799
							CHANNELS 6 Xposition Yposition Zposition Zrotation Xrotation Yrotation
							End Site
							{
								OFFSET 0.000000 0.000000 -2.173901
							}
						}
					}
				}
			}
			JOINT RightCollar
			{
				OFFSET -2.381901 -1.419600 6.136600
				CHANNELS 6 Xposition Yposition Zposition Zrotation Xrotation Yrotation
				JOINT RightShoulder
				{
					OFFSET -4.550499 0.000000 0.000000
					CHANNELS 6 Xposition Yposition Zposition Zrotation Xrotation Yrotation
					JOINT RightElbow
					{
						OFFSET 0.000000 0.000000 -11.106499
						CHANNELS 6 Xposition Yposition Zposition Zrotation Xrotation Yrotation
						JOINT RightWrist
						{
							OFFSET 0.000000 0.000000 -12.874298
							CHANNELS 6 Xposition Yposition Zposition Zrotation Xrotation Yrotation
							End Site
							{
								OFFSET 0.000000 0.000000 -2.173901
							}
						}
					}
				}
			}
		}
	}
	JOINT LeftHip
	{
		OFFSET 2.431900 0.469601 -2.489399
		CHANNELS 6 Xposition Yposition Zposition Zrotation Xrotation Yrotation
		JOINT LeftKnee
		{
			OFFSET 0.000000 -0.000004 -18.200201
			CHANNELS 6 Xposition Yposition Zposition Zrotation Xrotation Yrotation
			JOINT LeftAnkle
			{
				OFFSET 0.000000 0.000000 -16.279900
				CHANNELS 6 Xposition Yposition Zposition Zrotation Xrotation Yrotation
				End Site
				{
					OFFSET 0.000000 -8.394100 0.000000
				}
			}
		}
	}
	JOINT RightHip
	{
		OFFSET -1.987999 -0.073502 -2.713001
		CHANNELS 6 Xposition Yposition Zposition Zrotation Xrotation Yrotation
		JOINT RightKnee
		{
			OFFSET 0.000000 -0.000004 -19.547802
			CHANNELS 6 Xposition Yposition Zposition Zrotation Xrotation Yrotation
			JOINT RightAnkle
			{
				OFFSET 0.000000 0.000000 -14.881199
				CHANNELS 6 Xposition Yposition Zposition Zrotation Xrotation Yrotation
				End Site
				{
					OFFSET 0.000000 -7.922699 0.000000
				}
			}
		}
	}
}
MOTION
Frames: 6
Frame Time: 0.041667
79.889397 14.058197 41.623505 4831.388186 11.177325 0.151395 -0.780006 1.005799 5.403091 28.006270 2.694147 4.155184 0.000005 -0.000001 4.236798 -17.398266 -0.854314 -1.350695 0.000007 0.000002 9.874399 15.794556 17.019964 5.044633 -0.000005 0.000002 2.173894 1.164077 3.473880 1.438038 2.681603 -0.377592 5.432502 0.666905 1.263792 -7.713308 5.161503 -0.000004 -0.000005 -233.707217 -165.542680 -231.706682 -0.000003 -0.000004 -10.869104 -10.863356 -56.850612 44.113316 0.000003 -0.000003 -13.344801 -56.125276 -14.310177 4.509121 -2.381898 -1.419599 6.136594 24.675947 9.543765 15.162190 -4.550492 -0.000016 0.000008 -1179.299588 -540.763070 -481.129508 0.000002 -0.000024 -11.106498 715.035019 -57.590932 693.935253 0.000009 -0.000003 -12.874279 -336.045307 8.952349 -39.415604 2.431896 0.469594 -2.489400 19.487303 -32.275697 11.576396 -0.000011 -0.000001 -18.200207 -21.053413 49.167380 13.363088 0.000003 -0.000008 -16.279903 9.184222 23.190041 -13.724823 -1.988002 -0.073496 -2.713002 -45.178232 -28.798219 -12.538173 -0.000003 0.000008 -19.547802 -2031.828063 100.048037 234.788955 0.000001 0.000007 -14.881207 1846.188112 71.117180 -32.354825
79.861191 14.140102 41.850105 4831.320868 11.031706 0.725833 -0.780008 1.005804 5.403097 28.175504 2.059237 3.312081 0.000002 -0.000003 4.236801 -17.767576 -0.808346 -1.397375 -0.000004 -0.000006 9.874399 15.940017 17.001690 5.191809 -0.000002 0.000006 2.173892 1.131832 3.421523 1.415629 2.681597 -0.377604 5.432502 -0.271240 -1.536619 -8.212701 5.161503 -0.000006 -0.000004 -232.923821 -167.872376 -230.431076 0.000002 -0.000008 -10.869087 -4.618067 -58.004821 49.401597 0.000002 0.000010 -13.344793 -55.826968 -14.334554 5.156416 -2.381898 -1.419605 6.136598 24.185876 9.109203 15.290108 -4.550510 -0.000001 0.000004 -1179.831578 -541.583950 -480.095800 -0.000000 0.000000 -11.106493 714.271404 -60.493421 692.719753 0.000003 -0.000003 -12.874307 -338.042782 9.043761 -40.672639 2.431902 0.469603 -2.489402 15.619191 -31.431796 9.730312 0.000001 -0.000006 -18.200199 -19.793518 47.252693 12.958754 0.000001 0.000002 -16.279900 10.621257 23.439235 -12.613400 -1.987998 -0.073498 -2.713000 -52.532006 -29.878987 -15.800565 -0.000002 0.000001 -19.547796 -2047.551268 97.719913 256.528081 -0.000002 0.000005 -14.881191 1844.633888 72.232304 -32.871170
79.833496 14.228302 42.068409 4831.370264 10.752245 1.264829 -0.779996 1.005808 5.403097 28.204981 1.528297 2.491964 -0.000017 -0.000002 4.236796 -17.484582 -0.971889 -1.370417 -0.000001 -0.000002 9.874401 15.624295 17.090385 5.001319 0.000010 0.000004 2.173903 1.047267 3.487625 1.554205 2.681599 -0.377602 5.432495 0.556471 1.829332 -8.290017 5.161510 0.000002 -0.000002 -234.028891 -165.825764 -234.532304 0.000003 -0.000013 -10.869081 -0.515410 -59.624478 54.094685 0.000009 0.000005 -13.344799 -55.009353 -14.637813 5.836604 -2.381898 -1.419598 6.136590 23.279317 8.487960 15.188372 -4.550512 -0.000000 0.000001 -1180.358431 -542.148506 -479.479772 0.000010 -0.000007 -11.106497 713.301298 -62.924696 691.257928 -0.000005 -0.000001 -12.874300 -339.598262 9.108161 -42.114841 2.431902 0.469611 -2.489400 11.868728 -30.380477 8.135483 0.000001 -0.000001 -18.200203 -17.330063 45.560398 11.678790 -0.000005 0.000000 -16.279896 11.751041 23.789330 -12.119185 -1.987996 -0.073497 -2.713007 -61.514808 -30.228795 -20.039447 -0.000000 0.000005 -19.547789 -2076.825568 96.354578 293.302420 0.000004 0.000005 -14.881194 1842.357086 72.965442 -33.285032
79.813499 14.313000 42.284405 4831.523260 10.176917 1.697874 -0.779993 1.005800 5.403096 28.125746 1.366020 1.646590 0.000002 -0.000004 4.236804 -17.506050 -1.010394 -1.375416 0.000004 0.000000 9.874404 15.660036 17.006408 4.813601 -0.000008 0.000004 2.173892 0.946476 3.527170 1.667380 2.681605 -0.377602 5.432499 -0.518678 -0.331057 -8.664133 5.161499 -0.000006 -0.000012 -232.607720 -166.904210 -233.591759 0.000002 -0.000006 -10.869100 4.072335 -60.518474 58.948631 0.000004 -0.000003 -13.344799 -54.797566 -14.960869 6.446137 -2.381905 -1.419600 6.136597 22.416894 7.655402 15.126907 -4.550505 -0.000014 0.000006 -1180.814251 -542.815952 -478.890080 0.000002 -0.000012 -11.106503 712.372830 -65.530433 690.124172 0.000003 0.000006 -12.874290 -341.410967 9.290504 -43.099412 2.431907 0.469603 -2.489399 8.807103 -29.033768 6.894466 0.000008 0.000001 -18.200203 -16.514887 44.052401 11.203062 -0.000001 0.000005 -16.279898 13.080361 23.895886 -11.007444 -1.987991 -0.073499 -2.712997 -72.437100 -29.369994 -25.126625 -0.000009 -0.000006 -19.547806 -2109.291807 97.631626 334.969716 -0.000010 0.000008 -14.881196 1838.970405 73.429725 -33.275729
79.803993 14.395401 42.470505 4831.695490 9.719265 2.071624 -0.780008 1.005804 5.403098 28.012351 1.111223 0.961051 0.000012 -0.000001 4.236801 -17.510742 -1.020256 -1.385453 0.000008 -0.000002 9.874403 15.505947 16.829284 4.686754 -0.000001 0.000003 2.173895 1.013324 3.484304 1.679913 2.681612 -0.377602 5.432500 -0.155916 0.079431 -9.297014 5.161501 -0.000002 0.000000 -232.923056 -166.192368 -234.817368 0.000003 -0.000007 -10.869106 7.740211 -62.243166 63.006555 0.000009 -0.000005 -13.344797 -53.652382 -15.102943 6.773957 -2.381889 -1.419601 6.136602 21.477376 6.610009 15.022504 -4.550506 -0.000013 -0.000001 -1181.155323 -543.155986 -478.348310 0.000006 -0.000011 -11.106498 710.676539 -68.020543 687.878952 0.000008 -0.000003 -12.874299 -342.562291 9.376902 -44.024268 2.431896 0.469604 -2.489398 6.487010 -27.852026 6.065786 -0.000002 -0.000003 -18.200199 -15.315162 42.865953 10.379272 -0.000006 0.000001 -16.279900 13.831845 24.066035 -10.520889 -1.988010 -0.073498 -2.712996 -83.877312 -27.363801 -30.664769 -0.000006 -0.000009 -19.547804 -2126.665841 101.249208 362.190616 0.000007 0.000004 -14.881198 1835.218718 73.409876 -33.823271
79.806297 14.485798 42.654205 4831.905313 9.312944 2.429211 -0.780002 1.005796 5.403099 27.849237 0.783401 0.368497 -0.000004 -0.000002 4.236799 -17.448984 -1.015875 -1.381357 0.000001 -0.000002 9.874394 15.309365 16.713956 4.527615 0.000000 0.000002 2.173893 1.080271 3.360569 1.825219 2.681600 -0.377603 5.432495 0.339124 0.422800 -10.031330 5.161501 -0.000004 0.000001 -233.357238 -165.482848 -236.057239 0.000005 -0.000007 -10.869099 11.850277 -64.083191 67.465713 0.000003 0.000003 -13.344810 -51.652431 -15.781507 8.618959 -2.381897 -1.419598 6.136591 20.608947 5.414179 14.865306 -4.550510 0.000002 0.000007 -1181.480658 -543.687101 -478.157283 0.000001 -0.000004 -11.106493 706.939004 -69.924915 684.006781 0.000003 -0.000001 -12.874291 -342.770831 9.465619 -44.927820 2.431895 0.469597 -2.489398 3.928502 -26.574477 5.185304 0.000000 -0.000007 -18.200201 -14.064983 41.388727 9.712514 -0.000002 0.000003 -16.279898 15.080520 24.459150 -10.687886 -1.987992 -0.073498 -2.713000 -96.395273 -23.536955 -36.357896 -0.000006 -0.000024 -19.547791 -2132.859784 106.184730 379.515390 -0.000003 0.000004 -14.881190 1831.094486 73.217196 -35.201398
